<svg xmlns="http://www.w3.org/2000/svg" viewBox="0 0 748 297" width="748" height="297" role="img"><title>ENJ</title><g transform="translate(-257 0)"><path fill="#290b0d" fill-rule="evenodd" d="M 639.955 17.189 L 631.409 33.331 693.023 164.915 L 754.637 296.500 772.319 296.773 C 782.043 296.923, 790 296.805, 790 296.509 C 790 296.214, 786.550 288.714, 782.333 279.843 C 778.117 270.972, 774.667 263.210, 774.667 262.594 C 774.667 261.978, 794.361 227.362, 818.432 185.669 C 842.503 143.976, 862.004 109.671, 861.768 109.434 C 861.006 108.672, 741.010 152.464, 741.021 153.500 C 741.027 154.050, 748.191 177.896, 756.941 206.491 C 765.692 235.086, 772.746 258.587, 772.619 258.715 C 772.491 258.842, 744.778 200.909, 711.034 129.973 C 677.290 59.038, 649.415 1.011, 649.091 1.024 C 648.766 1.037, 644.655 8.312, 639.955 17.189 M 366.004 108.750 C 366.006 109.162, 369.893 116.250, 374.640 124.500 C 379.388 132.750, 386.832 145.800, 391.183 153.500 C 395.534 161.200, 415.611 196.466, 435.797 231.870 L 472.500 296.240 480.625 279.370 L 488.750 262.500 486.125 257.951 C 484.681 255.448, 464.608 220.686, 441.517 180.701 L 399.535 108 382.767 108 C 373.545 108, 366.002 108.338, 366.004 108.750 M 889.123 123.029 C 884.655 130.829, 881 137.717, 881 138.334 C 881 138.952, 901.114 174.680, 925.698 217.729 L 970.395 296 987.805 296 C 1002.595 296, 1005.130 295.782, 1004.658 294.551 C 1003.935 292.667, 898.991 110.759, 898.001 109.673 C 897.586 109.219, 893.591 115.229, 889.123 123.029 M 585 206 L 585 227 605.500 227 L 626 227 626 206 L 626 185 605.500 185 L 585 185 585 206 M 637 206 L 637 227 657.500 227 L 678 227 678 206 L 678 185 657.500 185 L 637 185 637 206 M 356 235.500 L 356 247 367.500 247 L 379 247 379 235.500 L 379 224 367.500 224 L 356 224 356 235.500 M 385 235.500 L 385 247 396.500 247 L 408 247 408 235.500 L 408 224 396.500 224 L 385 224 385 235.500 M 855 235.500 L 855 247 866.500 247 L 878 247 878 235.500 L 878 224 866.500 224 L 855 224 855 235.500 M 884 235.500 L 884 247 895.500 247 L 907 247 907 235.500 L 907 224 895.500 224 L 884 224 884 235.500 M 585 257.500 L 585 278 605.500 278 L 626 278 626 257.500 L 626 237 605.500 237 L 585 237 585 257.500 M 637 257.500 L 637 278 657.500 278 L 678 278 678 257.500 L 678 237 657.500 237 L 637 237 637 257.500 M 356 264.533 L 356 276.066 367.250 275.783 L 378.500 275.500 378.783 264.250 L 379.066 253 367.533 253 L 356 253 356 264.533 M 385 264.533 L 385 276.066 396.250 275.783 L 407.500 275.500 407.783 264.250 L 408.066 253 396.533 253 L 385 253 385 264.533 M 855 264.500 L 855 276 866.500 276 L 878 276 878 264.500 L 878 253 866.500 253 L 855 253 855 264.500 M 884 264.500 L 884 276 895.500 276 L 907 276 907 264.500 L 907 253 895.500 253 L 884 253 884 264.500"/><path fill="#942531" fill-rule="evenodd" d="M 552 129.421 C 518.175 200.586, 490.386 258.702, 490.246 258.569 C 490.106 258.435, 497.238 234.596, 506.094 205.594 C 514.950 176.592, 522.040 152.735, 521.848 152.579 C 520.914 151.816, 400.886 108.790, 400.612 109.119 C 400.439 109.329, 420.086 143.700, 444.274 185.500 C 468.462 227.300, 488.262 261.950, 488.274 262.500 C 488.286 263.050, 484.854 270.657, 480.648 279.403 C 476.442 288.150, 473 295.698, 473 296.176 C 473 296.655, 480.909 296.923, 490.575 296.773 L 508.149 296.500 570.661 163 C 605.043 89.575, 633.517 29.050, 633.937 28.500 C 634.357 27.950, 637.948 21.313, 641.917 13.750 L 649.133 0 631.316 0.015 L 613.500 0.031 552 129.421 M 311.945 200.787 C 282.550 251.675, 258.140 293.915, 257.700 294.655 C 257.043 295.761, 260.068 296, 274.749 296 L 292.598 296 337.572 217.250 L 382.547 138.500 373.968 123.382 L 365.390 108.264 311.945 200.787 M 818.718 185.170 L 774.176 262.341 776.480 267.420 C 777.748 270.214, 781.336 277.853, 784.454 284.395 L 790.124 296.290 834.678 218.395 C 859.182 175.553, 880.371 138.475, 881.764 136 C 883.156 133.525, 887.154 126.503, 890.648 120.395 C 894.142 114.288, 897 109, 897 108.645 C 897 108.290, 889.409 108, 880.130 108 L 863.261 108 818.718 185.170"/><path fill="#de6f7e" fill-rule="evenodd" d="M 338.770 215.232 C 314.831 257.179, 294.723 292.512, 294.087 293.750 L 292.930 296 302.237 296 L 311.543 296 352.204 226.461 L 392.864 156.922 387.839 148.211 C 385.076 143.420, 382.698 139.379, 382.556 139.232 C 382.413 139.084, 362.710 173.284, 338.770 215.232 M 876.231 145.663 C 874.054 149.423, 871.750 153.504, 871.111 154.730 C 870.066 156.739, 873.992 163.873, 910.600 226.480 L 951.249 296 960.666 296 L 970.084 296 967.604 291.750 C 966.240 289.413, 946.013 254.048, 922.657 213.163 L 880.190 138.826 876.231 145.663"/></g></svg>
